<svg xmlns="http://www.w3.org/2000/svg" enable-background="new 0 0 512 512" viewBox="0 0 512 512" id="chemistry"><path fill="#f0f7ff" d="M247.5,386.3c0,66.6-54,120.7-120.7,120.7S6.1,453,6.1,386.3c0-53.5,34.9-98.9,83.1-114.8v-84h75.1v84C212.6,287.4,247.5,332.8,247.5,386.3z"></path><path fill="#83cafa" d="M247.5,386.3c0,66.6-54,120.7-120.7,120.7S6.1,453,6.1,386.3c0-5.9,0.4-11.6,1.3-17.3c17.3,2,18.4,20.9,37.7,20.9c20.4,0,20.4-21.2,40.8-21.2s20.4,21.2,40.8,21.2c20.4,0,20.4-21.2,40.9-21.2c20.4,0,20.4,21.2,40.8,21.2c19.4,0,20.4-18.9,37.8-20.9C247,374.7,247.5,380.4,247.5,386.3z"></path><path d="M247.5,386.3c0,66.6-54,120.7-120.7,120.7S6.1,453,6.1,386.3c0-6.1,0.4-12.1,1.3-17.9c8.7,58.1,58.9,102.6,119.4,102.6s110.7-44.5,119.4-102.6C247,374.2,247.5,380.2,247.5,386.3z" opacity=".1"></path><path fill="#bfbfbf" d="M505.9,187.2c0,6-4.9,10.9-10.9,10.9h-75.9c-6,0-10.9-4.9-10.9-10.9s4.9-10.9,10.9-10.9H495C501,176.3,505.9,181.1,505.9,187.2z"></path><path fill="#fff" d="M435.7,198.1h-16.7c-6,0-10.9-4.9-10.9-10.9s4.9-10.9,10.9-10.9h16.7c-6,0-10.9,4.9-10.9,10.9S429.7,198.1,435.7,198.1z" opacity=".4"></path><path d="M505.9,187.2c0,6-4.9,10.9-10.9,10.9h-16.7c6,0,10.9-4.9,10.9-10.9s-4.9-10.9-10.9-10.9H495C501,176.3,505.9,181.1,505.9,187.2z" opacity=".1"></path><path fill="#f0f7ff" d="M495.1,198v271c0,20.9-17,38-38,38c-10.5,0-20-4.2-26.9-11.1c-6.9-6.9-11.1-16.4-11.1-26.9V198H495.1z"></path><path fill="#e56c63" d="M495.1,347.3V469c0,20.9-17,38-38,38c-10.5,0-20-4.2-26.9-11.1c-6.9-6.9-11.1-16.4-11.1-26.9V338.4C466,317.8,459.8,347.3,495.1,347.3z"></path><path d="M495.1,433.1V469c0,20.9-17,38-38,38c-10.5,0-20-4.2-26.9-11.1s-11.1-16.4-11.1-26.9v-35.9c0,10.5,4.2,20,11.1,26.9s16.4,11.1,26.9,11.1C478,471.1,495.1,454,495.1,433.1z" opacity=".1"></path><rect width="59.3" height="22.1" x="97.1" y="154.2" fill="#bfbfbf"></rect><path fill="#bfbfbf" d="M175.6,187.2c0,6-4.9,10.9-10.9,10.9H88.8c-6,0-10.9-4.9-10.9-10.9s4.9-10.9,10.9-10.9h75.9C170.8,176.3,175.6,181.1,175.6,187.2z"></path><g opacity=".4"><rect width="16.7" height="22.1" x="97.1" y="154.2" fill="#fff"></rect><path fill="#fff" d="M105.5,198.1H88.8c-6,0-10.9-4.9-10.9-10.9s4.9-10.9,10.9-10.9h16.7c-6,0-10.9,4.9-10.9,10.9S99.4,198.1,105.5,198.1z"></path></g><g opacity=".1"><rect width="16.7" height="22.1" x="139.8" y="154.2"></rect><path d="M175.6,187.2c0,6-4.9,10.9-10.9,10.9h-16.7c6,0,10.9-4.9,10.9-10.9s-4.9-10.9-10.9-10.9h16.7C170.8,176.3,175.6,181.1,175.6,187.2z"></path></g><circle cx="126.8" cy="258.5" r="14.6" fill="#83cafa" transform="rotate(-84.345 126.776 258.51) scale(.99997)"></circle><path d="M141.4,258.5c0,8.1-6.6,14.6-14.6,14.6c-6.7,0-12.3-4.4-14-10.5c1.3,0.4,2.7,0.6,4.1,0.6c8,0,14.6-6.5,14.6-14.6c0-1.4-0.2-2.8-0.6-4.1C136.9,246.3,141.4,251.9,141.4,258.5z" opacity=".1"></path><circle cx="454.8" cy="243.9" r="14.6" fill="#e56c63"></circle><path d="M469.3,243.9c0,8.1-6.5,14.6-14.6,14.6c-6.2,0-11.5-3.9-13.6-9.5c1.6,0.6,3.3,0.9,5.1,0.9c8,0,14.5-6.5,14.5-14.6c0-1.8-0.3-3.5-0.9-5.1C465.4,232.4,469.3,237.7,469.3,243.9z" opacity=".1"></path><circle cx="171" cy="325.9" r="14.6" fill="#83cafa"></circle><path d="M185.5,325.9c0,8.1-6.5,14.6-14.5,14.6c-6.2,0-11.5-3.8-13.6-9.2c1.7,0.6,3.5,1,5.3,1c8,0,14.5-6.5,14.5-14.6c0-1.9-0.3-3.6-1-5.3C181.7,314.5,185.5,319.8,185.5,325.9z" opacity=".1"></path><circle cx="69.5" cy="340.5" r="12" fill="#83cafa"></circle><path d="M81.5,340.5c0,6.6-5.4,12-12,12c-5.3,0-9.9-3.5-11.4-8.3c1.1,0.3,2.3,0.5,3.6,0.5c6.6,0,12-5.3,12-12c0-1.3-0.2-2.5-0.6-3.6C77.9,330.6,81.5,335.1,81.5,340.5z" opacity=".1"></path><g><path fill="#333" d="M510.9,187.2c0-8.8-7.1-15.9-15.9-15.9h-33V59.1C462,26.5,435.5,0,402.9,0s-59.1,26.5-59.1,59.1v45.2c0,29.4-23.9,53.3-53.3,53.3c-29.4,0-53.3-23.9-53.3-53.3V57.7c0-31.8-25.9-57.7-57.7-57.7s-57.7,25.9-57.7,57.7v91.5H97.1c-2.8,0-5,2.2-5,5v17.1h-3.3c-8.8,0-15.9,7.1-15.9,15.9c0,7.2,4.8,13.2,11.3,15.2V268C34.3,286,1.1,333.1,1.1,386.3C1.1,455.6,57.5,512,126.8,512s125.7-56.4,125.7-125.7c0-53.2-33.3-100.3-83.1-118.3v-65.6c6.5-2,11.3-8,11.3-15.2c0-8.8-7.1-15.9-15.9-15.9h-3.3v-17.1c0-2.8-2.2-5-5-5h-24.6V57.7c0-26.3,21.4-47.7,47.7-47.7s47.7,21.4,47.7,47.7v46.6c0,34.9,28.4,63.3,63.3,63.3s63.3-28.4,63.3-63.3V59.1c0-27.1,22-49.1,49.1-49.1S452,32,452,59.1v112.1h-33c-8.8,0-15.9,7.1-15.9,15.9c0,7,4.6,13,10.9,15.1V469c0,23.8,19.2,43,43,43c23.7,0,43-19.3,43-43V202.2C506.4,200.1,510.9,194.2,510.9,187.2z M126.8,502C63,502,11.1,450.1,11.1,386.3c0-3.7,0.2-7.4,0.5-11.1c3.7,1.6,6.4,4.5,9.4,7.6c5.2,5.4,11.7,12.1,23.9,12.1c12.3,0,18.8-6.7,24-12.1c4.9-5.1,8.7-9,16.8-9c8.1,0,11.9,4,16.8,9c5.2,5.4,11.7,12.1,24,12.1c12.3,0,18.8-6.7,24-12.1c4.9-5.1,8.8-9.1,16.9-9.1c8.1,0,11.9,4,16.8,9c5.2,5.4,11.7,12.1,24,12.1c12.4,0,18.8-6.7,24.1-12.1c3-3.1,5.8-6,9.4-7.6c0.3,3.7,0.5,7.3,0.5,11.1C242.5,450.1,190.6,502,126.8,502z M240.5,365.1c-6.9,2.2-11.2,6.7-15.2,10.8c-4.9,5.1-8.8,9-16.9,9c-8.1,0-11.9-4-16.8-9c-5.2-5.4-11.7-12.1-24-12.1c-12.4,0-18.9,6.7-24.1,12.1c-4.9,5-8.7,9-16.8,9s-11.9-4-16.8-9c-5.2-5.4-11.7-12.1-24-12.1s-18.8,6.7-24,12.1c-4.9,5.1-8.7,9-16.8,9c-8,0-11.9-4-16.8-9c-4-4.1-8.3-8.6-15.2-10.8c7.6-41,36.9-75.4,77.7-88.8c2.1-0.7,3.4-2.6,3.4-4.8V203h65.1v68.5c0,2.2,1.4,4.1,3.4,4.8C203.6,289.7,232.9,324.1,240.5,365.1z M170.6,187.2c0,3.3-2.6,5.9-5.9,5.9H88.8c-3.3,0-5.9-2.6-5.9-5.9s2.6-5.9,5.9-5.9h75.9C168,181.3,170.6,183.9,170.6,187.2z M151.4,171.3h-49.3v-12.1h49.3V171.3z M490.1,342.1c-9.4-0.9-15-4.4-20.8-8c-11.9-7.5-21.9-11.9-45.2-3.1V203h65.9L490.1,342.1L490.1,342.1z M457.1,502c-18.3,0-33-14.7-33-33V341.7c23.3-9.6,30.7-5,39.8,0.8c6.2,3.9,13.6,8.6,26.1,9.6V469C490.1,487.2,475.3,502,457.1,502z M495,193h-75.9h-0.1c-3.3,0-5.9-2.6-5.9-5.9s2.6-5.9,5.9-5.9H495c3.3,0,5.9,2.6,5.9,5.9C500.9,190.4,498.3,193,495,193z"></path><path fill="#333" d="M454.8 263.5c10.8 0 19.6-8.8 19.6-19.6s-8.8-19.6-19.6-19.6-19.6 8.8-19.6 19.6C435.2 254.7 444 263.5 454.8 263.5zM454.8 234.4c5.3 0 9.6 4.3 9.6 9.6 0 5.3-4.3 9.6-9.6 9.6-5.3 0-9.6-4.3-9.6-9.6C445.2 238.7 449.5 234.4 454.8 234.4zM126.8 238.9c-10.8 0-19.6 8.8-19.6 19.6s8.8 19.6 19.6 19.6 19.6-8.8 19.6-19.6S137.6 238.9 126.8 238.9zM126.8 268.1c-5.3 0-9.6-4.3-9.6-9.6 0-5.3 4.3-9.6 9.6-9.6 5.3 0 9.6 4.3 9.6 9.6C136.3 263.8 132.1 268.1 126.8 268.1zM151.4 325.9c0 10.8 8.8 19.6 19.6 19.6s19.6-8.8 19.6-19.6-8.8-19.6-19.6-19.6C160.2 306.4 151.4 315.1 151.4 325.9zM171 316.4c5.3 0 9.6 4.3 9.6 9.6s-4.3 9.6-9.6 9.6c-5.3 0-9.6-4.3-9.6-9.6S165.7 316.4 171 316.4zM69.5 323.5c-9.3 0-17 7.6-17 17s7.6 17 17 17c9.3 0 17-7.6 17-17C86.5 331.1 78.9 323.5 69.5 323.5zM69.5 347.5c-3.8 0-7-3.1-7-7 0-3.8 3.1-7 7-7 3.8 0 7 3.1 7 7S73.4 347.5 69.5 347.5z"></path></g></svg>